
<svg width="12" height="12" viewBox="0 0 12 12" fill="none" xmlns="http://www.w3.org/2000/svg">
<path fill-rule="evenodd" clip-rule="evenodd" d="M2.4216 0.0156264C1.83472 0.0857196 1.27115 0.356883 0.836514 0.77821C0.385056 1.21588 0.0986108 1.80449 0.0252571 2.44528C-0.00959424 2.74985 -0.00785803 7.05844 0.0272486 7.37396C0.0998109 8.02585 0.411558 8.65592 0.873868 9.08508C1.18636 9.37512 1.64226 9.62887 2.02248 9.72431L2.19393 9.76736L2.20121 10.7088L2.20848 11.6503L2.2862 11.7612C2.43761 11.9771 2.74323 12.0626 2.96038 11.9496C3.00881 11.9245 3.75266 11.4334 4.61343 10.8583L6.17842 9.81275H7.86607C9.46302 9.81275 9.56742 9.80996 9.80875 9.76066C10.9745 9.52265 11.8398 8.56823 11.9728 7.37396C12.0079 7.05844 12.0096 2.74985 11.9747 2.44528C11.8736 1.56134 11.3804 0.806836 10.6085 0.355093C10.4164 0.242662 10.1078 0.120843 9.85984 0.0595753C9.63942 0.00513791 9.62073 0.00483097 6.11489 9.83912e-05C4.17701 -0.0025365 2.51502 0.00444725 2.4216 0.0156264Z" fill="#DAE8FA"/>
</svg>
