
<svg width="16" height="16" viewBox="0 0 16 16" fill="none" xmlns="http://www.w3.org/2000/svg">
<path d="M0.5 8.80127C0.5 8.32333 0.889318 7.93588 1.36957 7.93588C1.84981 7.93588 2.23913 8.32333 2.23913 8.80127V14.6346C2.23913 15.1125 1.84981 15.5 1.36957 15.5C0.889318 15.5 0.5 15.1125 0.5 14.6346V8.80127Z" fill="currentColor"/>
<path d="M7.13048 1.36538C7.13048 0.887444 7.5198 0.5 8.00005 0.5C8.4803 0.5 8.86961 0.887445 8.86961 1.36538V14.6346C8.86961 15.1125 8.4803 15.5 8.00005 15.5C7.5198 15.5 7.13048 15.1125 7.13048 14.6346V1.36538Z" fill="currentColor"/>
<path d="M13.7609 5.33976C13.7609 4.86182 14.1502 4.47437 14.6304 4.47437C15.1107 4.47437 15.5 4.86182 15.5 5.33976V14.6346C15.5 15.1126 15.1107 15.5 14.6304 15.5C14.1502 15.5 13.7609 15.1126 13.7609 14.6346V5.33976Z" fill="currentColor"/>
</svg>
