<svg width="15" height="15" viewBox="0 0 15 15" fill="none" xmlns="http://www.w3.org/2000/svg">
<path d="M4.27897 9.96688L4.88855 9.38812L5.16812 9.74265C4.17094 8.57996 3.65573 6.99372 3.93826 5.30781C4.32883 2.99904 6.2567 1.15534 8.58345 0.872977C12.0985 0.44112 15.0568 3.39768 14.6247 6.91067C14.3421 9.23605 12.4974 11.1628 10.1872 11.5531C8.50035 11.8355 6.91318 11.3206 5.7498 10.324L6.10694 10.6051L5.52544 11.2126L1.99377 14.7422C1.65307 15.0827 1.09631 15.0827 0.75561 14.7422C0.414907 14.4017 0.414907 13.8453 0.75561 13.5048L4.27897 9.96688ZM9.26485 9.96688C11.334 9.96688 13.0043 8.29759 13.0043 6.22966C13.0043 4.16173 11.334 2.49244 9.26485 2.49244C7.19571 2.49244 5.52544 4.16173 5.52544 6.22966C5.52544 8.29759 7.19571 9.96688 9.26485 9.96688Z" fill="#6A727B"/>
<path d="M9.66675 4.58093C9.66675 4.35081 9.4802 4.16427 9.25008 4.16427C9.01996 4.16427 8.83342 4.35081 8.83342 4.58093V7.91427C8.83342 8.14438 9.01996 8.33093 9.25008 8.33093C9.4802 8.33093 9.66675 8.14438 9.66675 7.91427V4.58093Z" fill="#6A727B"/>
<path d="M10.9167 6.66427C11.1469 6.66427 11.3334 6.47772 11.3334 6.2476C11.3334 6.01748 11.1469 5.83093 10.9167 5.83093H7.58342C7.3533 5.83093 7.16675 6.01748 7.16675 6.2476C7.16675 6.47772 7.3533 6.66427 7.58342 6.66427H10.9167Z" fill="#6A727B"/>
</svg>
