<svg width="19" height="20" viewBox="0 0 19 20" fill="none" xmlns="http://www.w3.org/2000/svg">
<path fill-rule="evenodd" clip-rule="evenodd" d="M0.431153 0.903496C0.257504 0.984183 0.0983253 1.14376 0.0419341 1.2936C-0.0808437 1.61976 0.0762835 2.04263 0.378976 2.20078C0.432346 2.22864 1.03654 2.355 1.72162 2.48156C2.40675 2.60811 2.97447 2.71871 2.9833 2.72732C2.99211 2.73597 3.47438 5.1564 4.055 8.10607C4.63562 11.0557 5.13743 13.5406 5.17014 13.628C5.24787 13.8356 5.44915 13.9993 5.68762 14.049C5.81547 14.0756 7.53056 14.085 11.0045 14.0782L16.1327 14.0682L16.2912 13.9832C16.5951 13.8202 16.5579 13.9471 17.4953 9.8747C18.4443 5.75172 18.4259 5.86147 18.216 5.5966C18.155 5.51958 18.0311 5.41864 17.9408 5.37233L17.7765 5.28808H11.3744H4.97236L4.64524 3.61256C4.46533 2.69104 4.28549 1.86635 4.24558 1.77993C4.16058 1.59583 3.99197 1.45561 3.7858 1.39754C3.55773 1.33333 0.806013 0.832394 0.68648 0.83333C0.628112 0.833779 0.513204 0.865342 0.431153 0.903496ZM16.7098 6.79512C16.7092 6.82088 16.4096 8.13928 16.0439 9.72494L15.379 12.608L10.9007 12.6175L6.42246 12.627L6.38222 12.4303C6.3601 12.3221 6.10724 11.0373 5.82036 9.57517C5.53344 8.11307 5.2899 6.87891 5.27912 6.83256L5.25954 6.74831H10.9852C15.5413 6.74831 16.7106 6.75786 16.7098 6.79512ZM6.27548 15.2484C4.92563 15.6035 4.16174 17.0373 4.6166 18.3622C5.20285 20.0697 7.36246 20.5524 8.61665 19.2563C9.02907 18.8302 9.24613 18.3247 9.27902 17.714C9.36693 16.082 7.84776 14.8349 6.27548 15.2484ZM13.4525 15.2321C12.9856 15.3456 12.4866 15.6635 12.1605 16.0554C11.9783 16.2743 11.7402 16.7567 11.6721 17.0448C11.6453 17.1581 11.6237 17.4108 11.6242 17.6064C11.6256 18.2635 11.8597 18.8107 12.3469 19.2959C13.0911 20.0371 14.1494 20.2076 15.0929 19.7384C15.9967 19.2889 16.5184 18.3272 16.4087 17.313C16.3457 16.7309 16.1476 16.3286 15.7045 15.8828C15.3509 15.5271 15.0176 15.3331 14.5849 15.231C14.2862 15.1606 13.7448 15.1611 13.4525 15.2321ZM7.36817 16.7529C7.6822 16.9544 7.83224 17.2252 7.83355 17.5928C7.83649 18.4224 6.826 18.8561 6.23397 18.2793C6.03328 18.0837 5.96328 17.9347 5.94094 17.655C5.90789 17.2419 6.10481 16.8953 6.47281 16.7187C6.73105 16.5947 7.1463 16.6106 7.36817 16.7529ZM14.4179 16.703C14.8593 16.9043 15.0841 17.4457 14.9235 17.9202C14.8551 18.1221 14.6384 18.3507 14.4171 18.4544C13.9085 18.6926 13.293 18.4164 13.1118 17.8687C12.959 17.4068 13.1996 16.8904 13.6615 16.6889C13.8368 16.6124 14.2356 16.6199 14.4179 16.703Z" fill="#4092F1"/>
</svg>
