<svg width="28" height="36" viewBox="0 0 28 36" fill="none" xmlns="http://www.w3.org/2000/svg">
<path fill-rule="evenodd" clip-rule="evenodd" d="M3.55398 0.0487979C2.20447 0.333535 1.11281 1.31078 0.660473 2.63932L0.5 3.11048V18.0058V32.9012L0.65853 33.3667C1.05603 34.5333 1.94377 35.4355 3.08964 35.8372L3.55398 36H14H24.446L24.9104 35.8372C26.0562 35.4355 26.944 34.5333 27.3415 33.3667L27.5 32.9012V21.2103V9.51936L27.3197 9.01918C27.2205 8.74409 27.0233 8.34167 26.8816 8.12504C26.5657 7.64212 19.7484 1.06802 19.1138 0.634259C18.878 0.473122 18.4821 0.267122 18.2339 0.176482L17.7828 0.0116827L10.8072 0.000977781C6.97063 -0.00493811 3.70668 0.0166126 3.55398 0.0487979ZM16.7217 5.38338L16.7416 8.67747L16.9679 9.1437C17.2312 9.6862 17.6076 10.0588 18.1562 10.3198L18.5463 10.5053L21.9994 10.5254L25.4524 10.5456V21.4819C25.4524 33.7651 25.4933 32.8283 24.9337 33.396C24.3758 33.9621 25.2003 33.9224 14 33.9224C2.79965 33.9224 3.62416 33.9621 3.06632 33.396C2.50168 32.8232 2.54756 34.184 2.54756 18.0058C2.54756 1.82462 2.50147 3.18873 3.06757 2.61439C3.60132 2.07274 3.20527 2.10105 10.3361 2.09485L16.7017 2.08929L16.7217 5.38338ZM21.9994 6.19893C23.2495 7.39887 24.2725 8.39119 24.2725 8.40414C24.2725 8.4171 23.0878 8.42774 21.6399 8.42774C19.3392 8.42774 18.9936 8.41379 18.8982 8.3171C18.8032 8.22054 18.7892 7.88171 18.7892 5.66798V3.12957L19.2577 3.57347C19.5154 3.81757 20.7492 4.99906 21.9994 6.19893ZM5.65436 14.2071C5.36132 14.3641 5.11568 14.7796 5.11568 15.1183C5.11568 15.4678 5.36118 15.8735 5.66915 16.033C5.93887 16.1725 6.06255 16.1747 13.7918 16.1747C21.521 16.1747 21.6447 16.1725 21.9144 16.033C22.2224 15.8735 22.4679 15.4678 22.4679 15.1183C22.4679 14.7689 22.2224 14.3631 21.9144 14.2037C21.6445 14.064 21.5241 14.062 13.7772 14.065C6.08539 14.068 5.90819 14.0711 5.65436 14.2071ZM5.65436 19.8413C5.36132 19.9983 5.11568 20.4138 5.11568 20.7525C5.11568 21.102 5.36118 21.5077 5.66915 21.6671C5.93887 21.8067 6.06255 21.8089 13.7918 21.8089C21.521 21.8089 21.6447 21.8067 21.9144 21.6671C22.2224 21.5077 22.4679 21.102 22.4679 20.7525C22.4679 20.403 22.2224 19.9973 21.9144 19.8379C21.6445 19.6982 21.5241 19.6962 13.7772 19.6992C6.08539 19.7022 5.90819 19.7053 5.65436 19.8413ZM5.65436 25.4743C5.36139 25.6326 5.11568 26.0488 5.11568 26.3867C5.11568 26.7385 5.36111 27.1419 5.67352 27.3036C5.94241 27.4427 6.04735 27.447 8.75631 27.4277C11.4645 27.4086 11.5673 27.4029 11.7523 27.2627C12.0963 27.0019 12.2221 26.7675 12.2221 26.3867C12.2221 26.0059 12.0963 25.7714 11.7523 25.5107C11.5669 25.3703 11.468 25.365 8.73729 25.3498C6.03479 25.3347 5.90278 25.34 5.65436 25.4743Z" fill="#4092F1"/>
</svg>
