 <svg  xmlns="http://www.w3.org/2000/svg">
  <symbol id="favorites" viewBox="0 0 20 16">
   <path fill-rule="evenodd" clip-rule="evenodd" fill="white" stroke="black" d="M5.14105 0.55387C3.02821 0.876341 1.38202 2.40305 0.916667 4.47158C0.804247 4.97137 0.806077 5.92826 0.920433 6.45207C1.03619 6.98213 1.14642 7.28843 1.40864 7.80848C1.7931 8.57109 2.26692 9.12718 3.50755 10.2717C4.7752 11.4413 6.15992 12.6277 8.29493 14.3734C8.96647 14.9226 9.56293 15.3959 9.6204 15.4254C9.76635 15.5003 10.1051 15.5245 10.2679 15.4717C10.4144 15.4242 10.5629 15.3104 11.8291 14.2752C14.5296 12.0675 16.7731 10.0904 17.6014 9.18838C18.0978 8.64772 18.3584 8.28272 18.6117 7.77325C18.8488 7.29657 18.9698 6.9531 19.0827 6.43675C19.1868 5.96032 19.196 4.99808 19.1007 4.54959C18.7679 2.9838 17.7849 1.71361 16.3779 1.03115C14.9958 0.360767 13.4214 0.323458 12.0155 0.927814C11.399 1.19279 10.9644 1.49335 10.3505 2.07935L10.0012 2.41264L9.61512 2.04461C9.02878 1.48574 8.5608 1.16841 7.92933 0.901461C7.09243 0.547704 6.04065 0.416574 5.14105 0.55387ZM6.4875 2.14033C7.01846 2.22971 7.46573 2.40478 7.90175 2.69385C8.02012 2.77235 8.43981 3.14837 8.83439 3.52947C9.37515 4.0517 9.58714 4.23402 9.69529 4.26971C9.89506 4.33566 10.2072 4.32717 10.3589 4.25167C10.428 4.21729 10.7912 3.89252 11.166 3.52999C11.5409 3.16746 11.9551 2.79634 12.0865 2.7053C12.4022 2.48652 12.801 2.30884 13.2243 2.19829C13.5189 2.12141 13.6455 2.1082 14.0895 2.1082C14.5382 2.1082 14.6589 2.12106 14.9683 2.20167C16.6215 2.63241 17.7023 4.14693 17.5304 5.79209C17.4609 6.45782 17.1935 7.13433 16.7874 7.67224C16.4261 8.15089 15.3647 9.16911 13.945 10.399C12.5784 11.583 10.0595 13.6745 10.0002 13.6745C9.9828 13.6745 9.56003 13.3388 9.0607 12.9285C5.92644 10.353 3.78498 8.42992 3.22428 7.68721C2.58617 6.84194 2.32772 5.81153 2.50801 4.83144C2.8358 3.04923 4.63982 1.82928 6.4875 2.14033Z" fill="currentColor"/>
  </symbol>
  <symbol id="comparison" viewBox="0 0 16 16" fill="none" xmlns="http://www.w3.org/2000/svg">
    <path d="M0.5 8.80127C0.5 8.32333 0.889318 7.93588 1.36957 7.93588C1.84981 7.93588 2.23913 8.32333 2.23913 8.80127V14.6346C2.23913 15.1125 1.84981 15.5 1.36957 15.5C0.889318 15.5 0.5 15.1125 0.5 14.6346V8.80127Z" fill="currentColor"/>
<path d="M7.13048 1.36538C7.13048 0.887444 7.5198 0.5 8.00005 0.5C8.4803 0.5 8.86961 0.887445 8.86961 1.36538V14.6346C8.86961 15.1125 8.4803 15.5 8.00005 15.5C7.5198 15.5 7.13048 15.1125 7.13048 14.6346V1.36538Z" fill="currentColor"/>
<path d="M13.7609 5.33976C13.7609 4.86182 14.1502 4.47437 14.6304 4.47437C15.1107 4.47437 15.5 4.86182 15.5 5.33976V14.6346C15.5 15.1126 15.1107 15.5 14.6304 15.5C14.1502 15.5 13.7609 15.1126 13.7609 14.6346V5.33976Z" fill="currentColor"/>
  </symbol>
</svg>
