<?xml version="1.0" encoding="utf-8"?><svg viewBox="0 0 20 20" xmlns="http://www.w3.org/2000/svg" xmlns:xlink="http://www.w3.org/1999/xlink"><style>:root>svg{display:none}:root>svg:target{display:block}</style><svg fill="none" viewBox="0 0 14 14" id="arrow" xmlns="http://www.w3.org/2000/svg"><path d="M8.531 11.594 3.937 7l4.594-4.594" stroke="#4092F1" stroke-width="2" stroke-linecap="round" stroke-linejoin="round"/></svg><svg fill="none" viewBox="0 0 12 12" id="chat" xmlns="http://www.w3.org/2000/svg"><path fill-rule="evenodd" clip-rule="evenodd" d="M2.422.016a2.752 2.752 0 0 0-2.396 2.43c-.036.304-.034 4.612.001 4.928.073.652.385 1.282.847 1.711.312.29.768.544 1.148.64l.172.042.007.942.007.941.078.111c.152.216.457.302.674.189.049-.025.793-.517 1.653-1.092l1.565-1.045h1.688c1.597 0 1.701-.003 1.943-.052a2.722 2.722 0 0 0 2.164-2.387c.035-.316.037-4.624.002-4.929a2.754 2.754 0 0 0-1.367-2.09A3.18 3.18 0 0 0 9.86.06C9.64.005 9.62.005 6.115 0c-1.938-.003-3.6.004-3.693.016Z" fill="#DAE8FA"/></svg><svg fill="none" viewBox="0 0 16 16" id="comparison" xmlns="http://www.w3.org/2000/svg"><path d="M.5 8.801c0-.478.39-.865.87-.865s.87.387.87.865v5.834c0 .478-.39.865-.87.865a.868.868 0 0 1-.87-.865V8.8ZM7.13 1.365C7.13.887 7.52.5 8 .5s.87.387.87.865v13.27c0 .478-.39.865-.87.865a.868.868 0 0 1-.87-.865V1.365ZM13.76 5.34c0-.478.39-.866.87-.866s.87.388.87.866v9.295c0 .478-.39.865-.87.865a.867.867 0 0 1-.87-.865V5.34Z" fill="currentColor"/></svg><svg fill="none" viewBox="0 0 20 16" id="favorites" xmlns="http://www.w3.org/2000/svg"><path fill-rule="evenodd" clip-rule="evenodd" d="M5.141.554C3.028.876 1.382 2.403.917 4.472c-.113.5-.11 1.456.003 1.98.116.53.226.836.489 1.356.384.763.858 1.32 2.099 2.464 1.267 1.17 2.652 2.356 4.787 4.101.671.55 1.268 1.023 1.325 1.052.146.075.485.1.648.047.146-.048.295-.162 1.561-1.197 2.7-2.207 4.944-4.185 5.772-5.087.497-.54.757-.905 1.01-1.415a5.16 5.16 0 0 0 .472-1.336c.104-.477.113-1.439.018-1.887-.333-1.566-1.316-2.836-2.723-3.519a5.217 5.217 0 0 0-4.363-.103c-.616.265-1.05.565-1.665 1.151l-.349.334-.386-.368C9.03 1.485 8.561 1.168 7.93.9A5.41 5.41 0 0 0 5.141.554ZM6.487 2.14c.531.09.979.265 1.415.554.118.078.538.454.932.835.541.523.753.705.861.74.2.067.512.058.664-.017.069-.035.432-.36.807-.722.375-.363.79-.734.92-.825a3.649 3.649 0 0 1 1.138-.507c.295-.077.421-.09.865-.09.45 0 .57.013.88.094 1.653.43 2.733 1.945 2.561 3.59a3.852 3.852 0 0 1-.743 1.88c-.36.479-1.422 1.497-2.842 2.727-1.367 1.184-3.886 3.276-3.945 3.276-.017 0-.44-.336-.94-.747-3.134-2.575-5.275-4.498-5.836-5.24-.638-.846-.896-1.876-.716-2.857.328-1.782 2.132-3.002 3.98-2.69Z" fill="currentColor"/></svg><svg fill="none" viewBox="0 0 20 20" id="minus" xmlns="http://www.w3.org/2000/svg"><path stroke="currentColor" stroke-width="2" stroke-linecap="round" d="M4 9.5h12"/></svg><svg fill="none" viewBox="0 0 14 14" id="plus1" xmlns="http://www.w3.org/2000/svg"><path fill-rule="evenodd" clip-rule="evenodd" d="M0 7c0-.43.348-.778.778-.778h12.444a.778.778 0 1 1 0 1.556H.778A.778.778 0 0 1 0 7Z" fill="currentColor"/><path fill-rule="evenodd" clip-rule="evenodd" d="M7 14a.778.778 0 0 1-.778-.778V.778a.778.778 0 0 1 1.556 0v12.444c0 .43-.348.778-.778.778Z" fill="currentColor"/></svg></svg>